<mxfile host="app.diagrams.net" modified="2024-03-12T02:05:45.880Z" agent="Mozilla/5.0 (Windows NT 10.0; Win64; x64; rv:123.0) Gecko/20100101 Firefox/123.0" version="24.0.2" etag="T-EQKG6_MD_fUfTZDDnr" type="github">
  <diagram name="Page-1" id="C1UZa2a0BPhw9vzO9ZtJ">
    <mxGraphModel>
      <root>
        <mxCell id="0" />
        <mxCell id="1" parent="0" />
      </root>
    </mxGraphModel>
  </diagram>
</mxfile>
